PathFileType  4	(X/Y/Z) C:\Users\antoi\Documents\MyRepositories\mobilecap\ResultsAnalysis
DataRate	CameraRate	NumFrames	NumMarkers	Units	OrigDataRate	OrigDataStartFrame	OrigNumFrames
100.0	100.0	4	51	mm	100.0	135	269
Frame#	Time	r_knee			r_shank_antsup			r_ankle			r_calc			r_5meta			r_toe			L_knee			L_shank_antsup			L_ankle			L_calc			L_5meta			L_toe			r_sh2			r_sh3			r_sh4			L_sh2			L_sh3			r_thigh1			r_thigh2			r_thigh3			r_thigh4			r_thigh5			L_thigh1			L_thigh2			L_thigh3			L_thigh4			r.ASIS			r.PSIS			L.ASIS			L.PSIS			C7			R_Shoulder			L_Shoulder			R_Sternum			L_Sternum			R_humerus			R_elbow_med			R_elbow_lat			R_forearm			R_wrist_radius			R_wrist_ulna			L_humerus			L_elbow_med			L_elbow_lat			L_forearm			L_wrist_radius			L_wrist_ulna			R_HJC			L_HJC			R_HJC_reg			L_HJC_reg			
		X1	Y1	Z1	X2	Y2	Z2	X3	Y3	Z3	X4	Y4	Z4	X5	Y5	Z5	X6	Y6	Z6	X7	Y7	Z7	X8	Y8	Z8	X9	Y9	Z9	X10	Y10	Z10	X11	Y11	Z11	X12	Y12	Z12	X13	Y13	Z13	X14	Y14	Z14	X15	Y15	Z15	X16	Y16	Z16	X17	Y17	Z17	X18	Y18	Z18	X19	Y19	Z19	X20	Y20	Z20	X21	Y21	Z21	X22	Y22	Z22	X23	Y23	Z23	X24	Y24	Z24	X25	Y25	Z25	X26	Y26	Z26	X27	Y27	Z27	X28	Y28	Z28	X29	Y29	Z29	X30	Y30	Z30	X31	Y31	Z31	X32	Y32	Z32	X33	Y33	Z33	X34	Y34	Z34	X35	Y35	Z35	X36	Y36	Z36	X37	Y37	Z37	X38	Y38	Z38	X39	Y39	Z39	X40	Y40	Z40	X41	Y41	Z41	X42	Y42	Z42	X43	Y43	Z43	X44	Y44	Z44	X45	Y45	Z45	X46	Y46	Z46	X47	Y47	Z47	X48	Y48	Z48	X49	Y49	Z49	X50	Y50	Z50	X51	Y51	Z51	

135	1.34000000	-438.21848	727.79162	-401.80507	-376.90275	646.10838	-396.87957	-386.64128	317.57324	-382.94542	-440.61605	307.18755	-441.72306	-290.85941	214.86521	-343.62268	-242.07260	242.23502	-384.02173	-415.56840	736.02094	-773.42032	-352.58021	668.02198	-770.50915	-325.99248	331.16740	-786.40862	-391.12743	307.51425	-724.36455	-235.24906	232.19217	-817.99773	-177.02639	255.98945	-775.78566	-357.49383	534.17718	-387.49211	-444.75232	635.15152	-363.13789	-430.57934	521.98568	-351.68071	-437.79302	660.28726	-802.05264	-409.40687	542.30061	-816.80489	-507.49519	1002.90759	-405.01943	-456.11838	905.32429	-407.59463	-492.63135	857.67461	-377.43604	-606.06065	947.06101	-396.91454	-544.20487	847.50125	-399.66971	-455.27189	989.52745	-761.50899	-386.13691	868.03931	-749.08427	-541.83760	938.92308	-807.17271	-477.69243	822.66257	-786.88691	-512.99184	1163.61103	-467.00175	-696.67165	1216.89345	-558.28480	-498.57759	1172.48114	-713.21301	-688.18104	1221.49698	-648.55321	-520.31759	1651.89020	-570.41049	-470.57418	1631.61759	-429.62402	-443.64292	1620.22644	-694.88788	-428.36842	1546.51118	-537.99725	-419.55218	1552.93248	-579.24141	-401.94119	1586.21061	-344.69353	-395.19961	1429.37805	-187.66261	-378.29534	1493.42831	-157.96081	-286.20198	1490.82401	-187.24447	-148.35310	1418.71150	-249.96047	-143.50273	1412.84982	-200.44887	-372.61915	1558.03428	-786.47030	-351.77988	1398.21163	-923.51656	-325.27738	1470.92242	-952.56857	-249.77165	1464.35947	-927.90802	-96.49329	1384.33865	-891.93608	-95.50104	1399.26959	-942.64238	-597.82019	1085.01455	-498.39785	-583.29981	1092.57268	-687.25184	-589.34240	1095.52654	-512.41807	-574.10738	1103.78698	-674.37589	
136	1.35000000	-423.00994	709.03685	-400.54079	-360.44468	628.43355	-395.18046	-365.92208	299.89271	-380.60753	-419.88823	289.91848	-439.24527	-269.93044	196.64312	-341.97438	-221.19818	224.60755	-382.17049	-400.82410	716.97532	-774.56352	-336.78171	649.61992	-771.58443	-307.44346	312.43574	-787.61876	-372.78019	290.04808	-725.89307	-216.51857	212.36962	-816.69240	-158.47581	237.02957	-774.82096	-339.60287	516.71609	-385.40616	-428.26708	616.49715	-361.72989	-412.40056	503.71791	-350.00440	-421.93628	641.24418	-803.02777	-392.77591	523.35685	-817.74550	-494.48260	983.38302	-404.15634	-441.62026	886.51307	-406.12833	-479.28069	838.49697	-376.52451	-592.80116	926.80113	-398.07408	-530.27309	827.76252	-399.69478	-441.16048	970.41554	-762.56075	-371.71951	849.29001	-751.02179	-528.16047	919.53109	-807.33242	-463.39585	803.50035	-787.80044	-500.65791	1144.41701	-466.18972	-684.37611	1196.63021	-559.03646	-485.57990	1153.05946	-713.19647	-675.59796	1201.31217	-649.14820	-510.88297	1632.40004	-569.94861	-460.83919	1613.53856	-430.32425	-433.96235	1603.44024	-693.55166	-416.87217	1528.32519	-536.65531	-408.54319	1534.11486	-579.15096	-393.82154	1569.75228	-343.30709	-391.40855	1417.10517	-182.29931	-374.54680	1481.81662	-153.63424	-282.73277	1478.26531	-182.21216	-145.33711	1404.92433	-245.23639	-140.36273	1399.50992	-195.60660	-363.78423	1543.70887	-788.19637	-346.53240	1389.19680	-931.06175	-319.83427	1463.15448	-958.71744	-244.41165	1454.73413	-934.56930	-91.81673	1372.80874	-901.83285	-91.05553	1389.14077	-952.22541	-585.13902	1065.40316	-498.35820	-569.87780	1072.75120	-687.16259	-576.59073	1075.40847	-512.08087	-560.76421	1083.84911	-674.51970	
137	1.36000000	-407.67352	688.92148	-399.94102	-343.77017	609.59946	-393.56516	-346.48244	281.19414	-378.36408	-400.52394	271.76362	-436.71947	-250.38513	177.18464	-340.75052	-201.78823	205.55511	-380.77137	-385.73662	696.93652	-775.82716	-320.63186	629.82310	-772.71187	-290.39769	292.44823	-788.82670	-356.21902	271.36891	-727.63273	-199.59838	191.05696	-815.41404	-141.80486	215.83252	-773.44308	-322.22789	497.95397	-383.35963	-411.73617	597.18237	-360.44822	-394.80446	484.66478	-348.47873	-405.84892	621.54731	-804.39960	-376.49680	503.34867	-818.75374	-481.11179	962.85948	-403.36629	-425.82288	867.03137	-405.07141	-464.95669	818.30017	-375.76792	-578.89558	905.47897	-399.02573	-515.55701	807.05191	-399.60569	-426.75584	950.35100	-763.58920	-356.94106	829.63325	-752.93006	-514.11722	899.02151	-807.15177	-448.68220	783.48359	-788.64083	-487.85846	1124.00065	-466.06078	-671.98559	1175.07218	-559.56032	-472.41495	1132.71872	-713.27095	-662.98351	1179.76442	-649.42034	-501.51689	1611.77710	-569.48172	-451.31928	1594.58882	-431.12720	-424.35812	1585.98264	-692.07316	-404.93711	1509.53267	-535.11906	-397.34089	1514.27266	-579.36041	-386.13423	1552.55576	-341.77728	-388.73017	1404.12720	-177.21445	-371.94623	1469.33748	-149.76430	-279.98492	1465.06574	-177.68604	-143.01962	1391.02581	-239.51104	-138.19636	1385.85241	-189.92004	-355.24642	1529.22431	-789.51915	-342.03506	1380.19950	-938.99783	-315.37978	1455.13099	-964.47883	-239.84168	1445.16236	-941.57586	-87.83034	1361.57935	-912.52965	-87.45293	1379.09737	-962.33958	-571.88424	1044.46854	-498.51853	-556.29711	1051.87820	-687.29392	-563.43657	1054.45889	-512.21446	-547.15358	1062.94637	-674.75853	
138	1.37000000	-391.39920	668.27364	-399.25729	-326.77937	589.74424	-392.17237	-328.04540	261.60865	-376.23864	-382.45320	252.96540	-434.31646	-232.39766	156.52300	-339.93262	-183.84458	184.72894	-379.89638	-369.97228	675.95238	-776.77785	-304.04389	608.82651	-773.74681	-274.84753	271.49204	-790.19130	-341.37745	251.36525	-729.53254	-184.55371	168.43614	-814.63861	-127.15526	192.60286	-771.96500	-305.05797	478.17262	-381.54031	-395.02458	577.31089	-359.32361	-377.83916	464.84294	-347.17594	-389.35106	601.31700	-806.17812	-360.31931	482.52475	-819.69953	-467.24218	941.54652	-402.88767	-409.70618	846.57663	-404.15316	-449.47312	796.83825	-375.57375	-564.34814	883.16986	-399.65599	-499.98747	785.66387	-399.26037	-412.02065	929.42864	-764.59432	-341.49682	808.95549	-754.37990	-499.58191	877.49774	-807.02216	-433.27703	762.44526	-789.20671	-474.53955	1102.33015	-466.96479	-659.33366	1152.26586	-559.86180	-459.36370	1111.46917	-713.39156	-650.28733	1156.84836	-649.67360	-492.07705	1590.05592	-569.12212	-442.01244	1574.74763	-432.01770	-414.52948	1567.64008	-690.41263	-393.21980	1489.51419	-533.91317	-386.44178	1493.42507	-579.26978	-378.90770	1534.49744	-340.33830	-387.25304	1390.38099	-172.40378	-370.77115	1456.15007	-146.05073	-278.19591	1451.14653	-173.62814	-141.62676	1376.62366	-233.03930	-137.11911	1371.76662	-183.44604	-346.95740	1514.34329	-790.62081	-338.57139	1370.96226	-947.16332	-312.24408	1446.63305	-970.04884	-236.34635	1435.51184	-949.07410	-84.81673	1350.54850	-924.02029	-85.12555	1368.95230	-973.03881	-558.04658	1022.22298	-499.02992	-542.65783	1029.94976	-687.80816	-549.85870	1032.92227	-512.90709	-533.53909	1041.19020	-674.94125	
